<mxfile host="Electron" modified="2023-06-20T04:18:17.653Z" agent="Mozilla/5.0 (Windows NT 10.0; Win64; x64) AppleWebKit/537.36 (KHTML, like Gecko) draw.io/21.2.8 Chrome/112.0.5615.165 Electron/24.2.0 Safari/537.36" etag="IYw-ViNyr2-vsMzlC2Sh" version="21.2.8" type="device">
  <diagram name="利用者サブシステム" id="IvKBntvmqEdk93_zZxN3">
    <mxGraphModel dx="4550" dy="2040" grid="1" gridSize="10" guides="1" tooltips="1" connect="1" arrows="1" fold="1" page="0" pageScale="1" pageWidth="1169" pageHeight="827" math="0" shadow="0">
      <root>
        <mxCell id="cUUrMDtkCKifrzGY83Dt-0" />
        <mxCell id="cUUrMDtkCKifrzGY83Dt-1" parent="cUUrMDtkCKifrzGY83Dt-0" />
        <mxCell id="cUUrMDtkCKifrzGY83Dt-178" value="&lt;font style=&quot;font-size: 72px;&quot;&gt;【画面遷移図】高速バス予約システム / 利用者サブシステム&lt;/font&gt;" style="text;html=1;strokeColor=none;fillColor=none;align=center;verticalAlign=middle;whiteSpace=wrap;rounded=0;" parent="cUUrMDtkCKifrzGY83Dt-1" vertex="1">
          <mxGeometry x="-1910" y="-560" width="2740" height="200" as="geometry" />
        </mxCell>
        <mxCell id="d56yxDlHVTcK8kHYtfjR-0" value="路線予約" style="text;html=1;align=center;verticalAlign=middle;resizable=0;points=[];autosize=1;strokeColor=none;fillColor=none;" parent="cUUrMDtkCKifrzGY83Dt-1" vertex="1">
          <mxGeometry x="-640.0000000000001" y="684" width="70" height="30" as="geometry" />
        </mxCell>
        <mxCell id="mtMLRTaYKnvluzeI34c8-0" value="memberRegister&lt;br&gt;Input.jsp&lt;br&gt;会員登録" style="shape=umlBoundary;whiteSpace=wrap;html=1;" parent="cUUrMDtkCKifrzGY83Dt-1" vertex="1">
          <mxGeometry x="-10" y="105" width="100" height="80" as="geometry" />
        </mxCell>
        <mxCell id="mtMLRTaYKnvluzeI34c8-1" value="" style="shape=providedRequiredInterface;html=1;verticalLabelPosition=bottom;" parent="cUUrMDtkCKifrzGY83Dt-1" vertex="1">
          <mxGeometry x="-330" y="135" width="20" height="20" as="geometry" />
        </mxCell>
        <mxCell id="mtMLRTaYKnvluzeI34c8-2" value="" style="edgeStyle=orthogonalEdgeStyle;rounded=0;orthogonalLoop=1;jettySize=auto;html=1;" parent="cUUrMDtkCKifrzGY83Dt-1" source="mtMLRTaYKnvluzeI34c8-3" edge="1">
          <mxGeometry relative="1" as="geometry">
            <mxPoint x="-10" y="145" as="targetPoint" />
            <Array as="points">
              <mxPoint x="-70" y="145" />
              <mxPoint x="-70" y="145" />
            </Array>
          </mxGeometry>
        </mxCell>
        <mxCell id="mtMLRTaYKnvluzeI34c8-3" value="MemberRegister Controller&lt;br&gt;input()" style="ellipse;shape=umlControl;whiteSpace=wrap;html=1;" parent="cUUrMDtkCKifrzGY83Dt-1" vertex="1">
          <mxGeometry x="-180" y="95" width="80" height="90" as="geometry" />
        </mxCell>
        <mxCell id="mtMLRTaYKnvluzeI34c8-4" value="" style="edgeStyle=orthogonalEdgeStyle;rounded=0;orthogonalLoop=1;jettySize=auto;html=1;entryX=-0.012;entryY=0.556;entryDx=0;entryDy=0;entryPerimeter=0;" parent="cUUrMDtkCKifrzGY83Dt-1" source="mtMLRTaYKnvluzeI34c8-1" target="mtMLRTaYKnvluzeI34c8-3" edge="1">
          <mxGeometry relative="1" as="geometry">
            <mxPoint x="-189.9999999999999" y="145" as="targetPoint" />
          </mxGeometry>
        </mxCell>
        <mxCell id="mtMLRTaYKnvluzeI34c8-5" value="/memberRegister/input" style="text;align=center;fontStyle=1;verticalAlign=middle;spacingLeft=3;spacingRight=3;strokeColor=none;rotatable=0;points=[[0,0.5],[1,0.5]];portConstraint=eastwest;" parent="cUUrMDtkCKifrzGY83Dt-1" vertex="1">
          <mxGeometry x="-325" y="105" width="80" height="26" as="geometry" />
        </mxCell>
        <mxCell id="w8NjhGK84v3LaMva_mcL-0" style="edgeStyle=orthogonalEdgeStyle;rounded=0;orthogonalLoop=1;jettySize=auto;html=1;dashed=1;entryX=0.178;entryY=0.797;entryDx=0;entryDy=0;entryPerimeter=0;exitX=0.5;exitY=1.004;exitDx=0;exitDy=0;exitPerimeter=0;" parent="cUUrMDtkCKifrzGY83Dt-1" source="mtMLRTaYKnvluzeI34c8-6" target="mtMLRTaYKnvluzeI34c8-1" edge="1">
          <mxGeometry relative="1" as="geometry">
            <mxPoint x="-350" y="150" as="targetPoint" />
            <Array as="points">
              <mxPoint x="40" y="400" />
              <mxPoint x="-349" y="400" />
              <mxPoint x="-349" y="151" />
            </Array>
          </mxGeometry>
        </mxCell>
        <mxCell id="mtMLRTaYKnvluzeI34c8-6" value="memberRegister&lt;br&gt;Confirm.jsp&lt;br&gt;会員登録確認" style="shape=umlBoundary;whiteSpace=wrap;html=1;" parent="cUUrMDtkCKifrzGY83Dt-1" vertex="1">
          <mxGeometry x="-10" y="265" width="100" height="80" as="geometry" />
        </mxCell>
        <mxCell id="mtMLRTaYKnvluzeI34c8-7" value="" style="shape=providedRequiredInterface;html=1;verticalLabelPosition=bottom;" parent="cUUrMDtkCKifrzGY83Dt-1" vertex="1">
          <mxGeometry x="-300" y="295" width="20" height="20" as="geometry" />
        </mxCell>
        <mxCell id="0kFFkDMJlV047JNOH4lj-2" style="edgeStyle=orthogonalEdgeStyle;rounded=0;orthogonalLoop=1;jettySize=auto;html=1;entryX=0.475;entryY=0.986;entryDx=0;entryDy=0;entryPerimeter=0;" parent="cUUrMDtkCKifrzGY83Dt-1" source="mtMLRTaYKnvluzeI34c8-8" target="mtMLRTaYKnvluzeI34c8-3" edge="1">
          <mxGeometry relative="1" as="geometry">
            <Array as="points">
              <mxPoint x="-140" y="370" />
              <mxPoint x="-320" y="370" />
              <mxPoint x="-320" y="184" />
            </Array>
          </mxGeometry>
        </mxCell>
        <mxCell id="mtMLRTaYKnvluzeI34c8-8" value="MemberRegister Controller&lt;br&gt;confirm()" style="ellipse;shape=umlControl;whiteSpace=wrap;html=1;" parent="cUUrMDtkCKifrzGY83Dt-1" vertex="1">
          <mxGeometry x="-180" y="255" width="80" height="90" as="geometry" />
        </mxCell>
        <mxCell id="mtMLRTaYKnvluzeI34c8-9" value="/memberRegister/confirm" style="text;align=center;fontStyle=1;verticalAlign=middle;spacingLeft=3;spacingRight=3;strokeColor=none;rotatable=0;points=[[0,0.5],[1,0.5]];portConstraint=eastwest;" parent="cUUrMDtkCKifrzGY83Dt-1" vertex="1">
          <mxGeometry x="-280" y="304" width="80" height="26" as="geometry" />
        </mxCell>
        <mxCell id="mtMLRTaYKnvluzeI34c8-10" value="" style="edgeStyle=orthogonalEdgeStyle;rounded=0;orthogonalLoop=1;jettySize=auto;html=1;entryX=-0.012;entryY=0.556;entryDx=0;entryDy=0;entryPerimeter=0;" parent="cUUrMDtkCKifrzGY83Dt-1" source="mtMLRTaYKnvluzeI34c8-7" target="mtMLRTaYKnvluzeI34c8-8" edge="1">
          <mxGeometry relative="1" as="geometry">
            <mxPoint x="-190" y="305" as="targetPoint" />
          </mxGeometry>
        </mxCell>
        <mxCell id="mtMLRTaYKnvluzeI34c8-11" value="&lt;font style=&quot;font-size: 12px;&quot;&gt;登録&lt;/font&gt;" style="html=1;verticalAlign=bottom;endArrow=open;dashed=1;endSize=8;rounded=0;exitX=0.593;exitY=1.016;exitDx=0;exitDy=0;exitPerimeter=0;" parent="cUUrMDtkCKifrzGY83Dt-1" source="mtMLRTaYKnvluzeI34c8-0" target="mtMLRTaYKnvluzeI34c8-7" edge="1">
          <mxGeometry relative="1" as="geometry">
            <mxPoint x="50" y="225" as="sourcePoint" />
            <mxPoint x="-270" y="275" as="targetPoint" />
            <Array as="points">
              <mxPoint x="50" y="225" />
              <mxPoint x="-40" y="225" />
              <mxPoint x="-290" y="225" />
            </Array>
          </mxGeometry>
        </mxCell>
        <mxCell id="mtMLRTaYKnvluzeI34c8-14" value="&lt;font style=&quot;font-size: 12px;&quot;&gt;OK&lt;/font&gt;" style="html=1;verticalAlign=bottom;endArrow=open;dashed=1;endSize=8;rounded=0;" parent="cUUrMDtkCKifrzGY83Dt-1" edge="1">
          <mxGeometry relative="1" as="geometry">
            <mxPoint x="90" y="304.5799999999999" as="sourcePoint" />
            <mxPoint x="160" y="305" as="targetPoint" />
          </mxGeometry>
        </mxCell>
        <mxCell id="mtMLRTaYKnvluzeI34c8-15" value="" style="shape=providedRequiredInterface;html=1;verticalLabelPosition=bottom;" parent="cUUrMDtkCKifrzGY83Dt-1" vertex="1">
          <mxGeometry x="160" y="295" width="20" height="20" as="geometry" />
        </mxCell>
        <mxCell id="mtMLRTaYKnvluzeI34c8-16" value="/memberRegister/finish" style="text;align=center;fontStyle=1;verticalAlign=middle;spacingLeft=3;spacingRight=3;strokeColor=none;rotatable=0;points=[[0,0.5],[1,0.5]];portConstraint=eastwest;" parent="cUUrMDtkCKifrzGY83Dt-1" vertex="1">
          <mxGeometry x="130" y="315" width="80" height="26" as="geometry" />
        </mxCell>
        <mxCell id="cewtrIevnMnevMBHOG7r-26" style="edgeStyle=orthogonalEdgeStyle;rounded=0;orthogonalLoop=1;jettySize=auto;html=1;entryX=0.035;entryY=0.51;entryDx=0;entryDy=0;entryPerimeter=0;" parent="cUUrMDtkCKifrzGY83Dt-1" source="mtMLRTaYKnvluzeI34c8-17" target="cewtrIevnMnevMBHOG7r-24" edge="1">
          <mxGeometry relative="1" as="geometry" />
        </mxCell>
        <mxCell id="mtMLRTaYKnvluzeI34c8-17" value="MemberRegister&lt;br&gt;&amp;nbsp;Controller&lt;br&gt;finish()" style="ellipse;shape=umlControl;whiteSpace=wrap;html=1;" parent="cUUrMDtkCKifrzGY83Dt-1" vertex="1">
          <mxGeometry x="250" y="255" width="80" height="90" as="geometry" />
        </mxCell>
        <mxCell id="mtMLRTaYKnvluzeI34c8-18" value="" style="edgeStyle=orthogonalEdgeStyle;rounded=0;orthogonalLoop=1;jettySize=auto;html=1;entryX=0.013;entryY=0.556;entryDx=0;entryDy=0;entryPerimeter=0;" parent="cUUrMDtkCKifrzGY83Dt-1" source="mtMLRTaYKnvluzeI34c8-15" target="mtMLRTaYKnvluzeI34c8-17" edge="1">
          <mxGeometry relative="1" as="geometry">
            <mxPoint x="240" y="305" as="targetPoint" />
          </mxGeometry>
        </mxCell>
        <mxCell id="mtMLRTaYKnvluzeI34c8-20" value="正常" style="html=1;verticalAlign=bottom;endArrow=block;rounded=0;fontSize=14;fillColor=#F5AF58;entryX=0.01;entryY=0.5;entryDx=0;entryDy=0;entryPerimeter=0;" parent="cUUrMDtkCKifrzGY83Dt-1" target="mtMLRTaYKnvluzeI34c8-6" edge="1">
          <mxGeometry x="-0.1209" width="80" relative="1" as="geometry">
            <mxPoint x="-100" y="305" as="sourcePoint" />
            <mxPoint x="-20" y="304.5" as="targetPoint" />
            <mxPoint as="offset" />
          </mxGeometry>
        </mxCell>
        <mxCell id="-OVOChdrfuBdRQWjnKst-2" style="edgeStyle=orthogonalEdgeStyle;rounded=0;orthogonalLoop=1;jettySize=auto;html=1;entryX=-0.005;entryY=0.497;entryDx=0;entryDy=0;entryPerimeter=0;" parent="cUUrMDtkCKifrzGY83Dt-1" source="-OVOChdrfuBdRQWjnKst-0" target="-OVOChdrfuBdRQWjnKst-1" edge="1">
          <mxGeometry relative="1" as="geometry" />
        </mxCell>
        <mxCell id="-OVOChdrfuBdRQWjnKst-0" value="Seat&lt;br style=&quot;border-color: var(--border-color);&quot;&gt;Controller&lt;br&gt;select()" style="ellipse;shape=umlControl;whiteSpace=wrap;html=1;" parent="cUUrMDtkCKifrzGY83Dt-1" vertex="1">
          <mxGeometry x="-310" y="534" width="70" height="80" as="geometry" />
        </mxCell>
        <mxCell id="cewtrIevnMnevMBHOG7r-18" style="edgeStyle=orthogonalEdgeStyle;rounded=0;orthogonalLoop=1;jettySize=auto;html=1;entryX=0.823;entryY=0.074;entryDx=0;entryDy=0;entryPerimeter=0;dashed=1;" parent="cUUrMDtkCKifrzGY83Dt-1" source="-OVOChdrfuBdRQWjnKst-1" edge="1">
          <mxGeometry relative="1" as="geometry">
            <Array as="points">
              <mxPoint x="-30" y="510" />
              <mxPoint x="-1241" y="510" />
            </Array>
            <mxPoint x="-1240.9300000000003" y="565.7559999999999" as="targetPoint" />
          </mxGeometry>
        </mxCell>
        <mxCell id="-OVOChdrfuBdRQWjnKst-1" value="seatSelect.jsp座席指定" style="shape=umlBoundary;whiteSpace=wrap;html=1;" parent="cUUrMDtkCKifrzGY83Dt-1" vertex="1">
          <mxGeometry x="-80" y="534" width="100" height="80" as="geometry" />
        </mxCell>
        <mxCell id="rjzcPVWili3LVjaFxvBt-4" style="edgeStyle=orthogonalEdgeStyle;rounded=0;orthogonalLoop=1;jettySize=auto;html=1;entryX=-0.027;entryY=0.512;entryDx=0;entryDy=0;entryPerimeter=0;" parent="cUUrMDtkCKifrzGY83Dt-1" source="-OVOChdrfuBdRQWjnKst-3" target="-OVOChdrfuBdRQWjnKst-13" edge="1">
          <mxGeometry relative="1" as="geometry" />
        </mxCell>
        <mxCell id="EZN-KIAt1JVMTEw29yZ_-0" style="edgeStyle=orthogonalEdgeStyle;rounded=0;orthogonalLoop=1;jettySize=auto;html=1;entryX=0.485;entryY=1.004;entryDx=0;entryDy=0;entryPerimeter=0;" parent="cUUrMDtkCKifrzGY83Dt-1" source="-OVOChdrfuBdRQWjnKst-3" target="-OVOChdrfuBdRQWjnKst-0" edge="1">
          <mxGeometry relative="1" as="geometry" />
        </mxCell>
        <mxCell id="EZN-KIAt1JVMTEw29yZ_-1" style="edgeStyle=orthogonalEdgeStyle;rounded=0;orthogonalLoop=1;jettySize=auto;html=1;entryX=0.417;entryY=1.017;entryDx=0;entryDy=0;entryPerimeter=0;" parent="cUUrMDtkCKifrzGY83Dt-1" source="-OVOChdrfuBdRQWjnKst-3" target="Z9Pn1ZgCGDkS-28OlfDp-0" edge="1">
          <mxGeometry relative="1" as="geometry" />
        </mxCell>
        <mxCell id="-OVOChdrfuBdRQWjnKst-3" value="Seat&lt;br style=&quot;border-color: var(--border-color);&quot;&gt;Controller&lt;br style=&quot;border-color: var(--border-color);&quot;&gt;confirm()" style="ellipse;shape=umlControl;whiteSpace=wrap;html=1;" parent="cUUrMDtkCKifrzGY83Dt-1" vertex="1">
          <mxGeometry x="-220" y="748" width="80" height="86" as="geometry" />
        </mxCell>
        <mxCell id="-OVOChdrfuBdRQWjnKst-5" value="" style="edgeStyle=orthogonalEdgeStyle;rounded=0;orthogonalLoop=1;jettySize=auto;html=1;shadow=0;dashed=1;fontFamily=Helvetica;fontSize=12;fontColor=default;exitX=1.003;exitY=0.632;exitDx=0;exitDy=0;exitPerimeter=0;" parent="cUUrMDtkCKifrzGY83Dt-1" source="-OVOChdrfuBdRQWjnKst-1" target="DWK1BzIZ0BCnVVR7qhkl-0" edge="1">
          <mxGeometry relative="1" as="geometry">
            <mxPoint x="-420" y="740" as="targetPoint" />
            <mxPoint x="20" y="600" as="sourcePoint" />
          </mxGeometry>
        </mxCell>
        <mxCell id="-OVOChdrfuBdRQWjnKst-6" value="予約" style="text;html=1;align=center;verticalAlign=middle;resizable=0;points=[];autosize=1;strokeColor=none;fillColor=none;" parent="cUUrMDtkCKifrzGY83Dt-1" vertex="1">
          <mxGeometry x="50" y="594" width="50" height="30" as="geometry" />
        </mxCell>
        <mxCell id="-OVOChdrfuBdRQWjnKst-11" style="edgeStyle=orthogonalEdgeStyle;rounded=0;orthogonalLoop=1;jettySize=auto;html=1;entryX=0.029;entryY=0.539;entryDx=0;entryDy=0;entryPerimeter=0;" parent="cUUrMDtkCKifrzGY83Dt-1" source="-OVOChdrfuBdRQWjnKst-8" target="-OVOChdrfuBdRQWjnKst-0" edge="1">
          <mxGeometry relative="1" as="geometry" />
        </mxCell>
        <mxCell id="-OVOChdrfuBdRQWjnKst-8" value="" style="shape=providedRequiredInterface;html=1;verticalLabelPosition=bottom;" parent="cUUrMDtkCKifrzGY83Dt-1" vertex="1">
          <mxGeometry x="-450" y="570" width="20" height="20" as="geometry" />
        </mxCell>
        <mxCell id="-OVOChdrfuBdRQWjnKst-9" value="seat/select" style="text;align=center;fontStyle=1;verticalAlign=middle;spacingLeft=3;spacingRight=3;strokeColor=none;rotatable=0;points=[[0,0.5],[1,0.5]];portConstraint=eastwest;" parent="cUUrMDtkCKifrzGY83Dt-1" vertex="1">
          <mxGeometry x="-460" y="588" width="80" height="26" as="geometry" />
        </mxCell>
        <mxCell id="DWK1BzIZ0BCnVVR7qhkl-6" style="edgeStyle=orthogonalEdgeStyle;rounded=0;orthogonalLoop=1;jettySize=auto;html=1;dashed=1;entryX=0;entryY=0.5;entryDx=0;entryDy=0;entryPerimeter=0;" parent="cUUrMDtkCKifrzGY83Dt-1" source="-OVOChdrfuBdRQWjnKst-13" target="DWK1BzIZ0BCnVVR7qhkl-8" edge="1">
          <mxGeometry relative="1" as="geometry">
            <mxPoint x="290" y="866" as="targetPoint" />
          </mxGeometry>
        </mxCell>
        <mxCell id="cewtrIevnMnevMBHOG7r-17" style="edgeStyle=orthogonalEdgeStyle;rounded=0;orthogonalLoop=1;jettySize=auto;html=1;entryX=0;entryY=0.5;entryDx=0;entryDy=0;entryPerimeter=0;dashed=1;" parent="cUUrMDtkCKifrzGY83Dt-1" source="-OVOChdrfuBdRQWjnKst-13" target="-OVOChdrfuBdRQWjnKst-8" edge="1">
          <mxGeometry relative="1" as="geometry">
            <Array as="points">
              <mxPoint y="840" />
              <mxPoint x="-470" y="840" />
              <mxPoint x="-470" y="580" />
            </Array>
          </mxGeometry>
        </mxCell>
        <mxCell id="-OVOChdrfuBdRQWjnKst-13" value="seatSelect&lt;br&gt;Confirm.jsp&lt;br&gt;予約確認" style="shape=umlBoundary;whiteSpace=wrap;html=1;" parent="cUUrMDtkCKifrzGY83Dt-1" vertex="1">
          <mxGeometry x="-50" y="751" width="100" height="80" as="geometry" />
        </mxCell>
        <mxCell id="-OVOChdrfuBdRQWjnKst-12" value="戻る" style="text;html=1;align=center;verticalAlign=middle;resizable=0;points=[];autosize=1;strokeColor=none;fillColor=none;" parent="cUUrMDtkCKifrzGY83Dt-1" vertex="1">
          <mxGeometry x="-100" y="514" width="50" height="30" as="geometry" />
        </mxCell>
        <mxCell id="-OVOChdrfuBdRQWjnKst-19" value="エラー&lt;br&gt;error.reservedSeat&lt;br&gt;error.noSelect" style="text;html=1;align=center;verticalAlign=middle;resizable=0;points=[];autosize=1;strokeColor=none;fillColor=none;" parent="cUUrMDtkCKifrzGY83Dt-1" vertex="1">
          <mxGeometry x="-305" y="669" width="120" height="60" as="geometry" />
        </mxCell>
        <mxCell id="rjzcPVWili3LVjaFxvBt-1" style="edgeStyle=orthogonalEdgeStyle;rounded=0;orthogonalLoop=1;jettySize=auto;html=1;entryX=0.496;entryY=0.096;entryDx=0;entryDy=0;entryPerimeter=0;" parent="cUUrMDtkCKifrzGY83Dt-1" source="DWK1BzIZ0BCnVVR7qhkl-0" target="-OVOChdrfuBdRQWjnKst-3" edge="1">
          <mxGeometry relative="1" as="geometry">
            <Array as="points">
              <mxPoint x="50" y="713" />
              <mxPoint x="-180" y="713" />
            </Array>
          </mxGeometry>
        </mxCell>
        <mxCell id="DWK1BzIZ0BCnVVR7qhkl-0" value="" style="shape=providedRequiredInterface;html=1;verticalLabelPosition=bottom;" parent="cUUrMDtkCKifrzGY83Dt-1" vertex="1">
          <mxGeometry x="40" y="634" width="20" height="20" as="geometry" />
        </mxCell>
        <mxCell id="DWK1BzIZ0BCnVVR7qhkl-3" value="seat/confirm" style="text;align=center;fontStyle=1;verticalAlign=middle;spacingLeft=3;spacingRight=3;strokeColor=none;rotatable=0;points=[[0,0.5],[1,0.5]];portConstraint=eastwest;" parent="cUUrMDtkCKifrzGY83Dt-1" vertex="1">
          <mxGeometry x="60" y="642" width="80" height="14" as="geometry" />
        </mxCell>
        <mxCell id="maLwn5RQmdgQbu6IXRey-13" style="edgeStyle=orthogonalEdgeStyle;rounded=0;orthogonalLoop=1;jettySize=auto;html=1;dashed=1;entryX=0.868;entryY=0.904;entryDx=0;entryDy=0;entryPerimeter=0;" parent="cUUrMDtkCKifrzGY83Dt-1" source="DWK1BzIZ0BCnVVR7qhkl-5" edge="1">
          <mxGeometry relative="1" as="geometry">
            <mxPoint x="-1236.88" y="627.1759999999995" as="targetPoint" />
            <Array as="points">
              <mxPoint x="280" y="890" />
              <mxPoint x="-1220" y="890" />
              <mxPoint x="-1220" y="627" />
            </Array>
          </mxGeometry>
        </mxCell>
        <mxCell id="YT9_pVBrHntIXNorh0h2-2" style="edgeStyle=orthogonalEdgeStyle;rounded=0;orthogonalLoop=1;jettySize=auto;html=1;" parent="cUUrMDtkCKifrzGY83Dt-1" source="DWK1BzIZ0BCnVVR7qhkl-5" edge="1">
          <mxGeometry relative="1" as="geometry">
            <mxPoint x="-280" y="790" as="targetPoint" />
            <Array as="points">
              <mxPoint x="280" y="860" />
              <mxPoint x="-280" y="860" />
            </Array>
          </mxGeometry>
        </mxCell>
        <mxCell id="DWK1BzIZ0BCnVVR7qhkl-5" value="SeatSelect&lt;br style=&quot;border-color: var(--border-color);&quot;&gt;Controller&lt;br style=&quot;border-color: var(--border-color);&quot;&gt;finish()" style="ellipse;shape=umlControl;whiteSpace=wrap;html=1;" parent="cUUrMDtkCKifrzGY83Dt-1" vertex="1">
          <mxGeometry x="240" y="751" width="80" height="86" as="geometry" />
        </mxCell>
        <mxCell id="DWK1BzIZ0BCnVVR7qhkl-7" value="OK" style="text;html=1;align=center;verticalAlign=middle;resizable=0;points=[];autosize=1;strokeColor=none;fillColor=none;" parent="cUUrMDtkCKifrzGY83Dt-1" vertex="1">
          <mxGeometry x="50" y="762" width="40" height="30" as="geometry" />
        </mxCell>
        <mxCell id="DWK1BzIZ0BCnVVR7qhkl-10" style="edgeStyle=orthogonalEdgeStyle;rounded=0;orthogonalLoop=1;jettySize=auto;html=1;entryX=0.007;entryY=0.454;entryDx=0;entryDy=0;entryPerimeter=0;" parent="cUUrMDtkCKifrzGY83Dt-1" source="DWK1BzIZ0BCnVVR7qhkl-8" target="DWK1BzIZ0BCnVVR7qhkl-5" edge="1">
          <mxGeometry relative="1" as="geometry">
            <mxPoint x="260" y="783" as="targetPoint" />
          </mxGeometry>
        </mxCell>
        <mxCell id="DWK1BzIZ0BCnVVR7qhkl-8" value="" style="shape=providedRequiredInterface;html=1;verticalLabelPosition=bottom;" parent="cUUrMDtkCKifrzGY83Dt-1" vertex="1">
          <mxGeometry x="140" y="781" width="20" height="20" as="geometry" />
        </mxCell>
        <mxCell id="DWK1BzIZ0BCnVVR7qhkl-9" value="seat/finish" style="text;align=center;fontStyle=1;verticalAlign=middle;spacingLeft=3;spacingRight=3;strokeColor=none;rotatable=0;points=[[0,0.5],[1,0.5]];portConstraint=eastwest;" parent="cUUrMDtkCKifrzGY83Dt-1" vertex="1">
          <mxGeometry x="120" y="806" width="80" height="14" as="geometry" />
        </mxCell>
        <mxCell id="rjzcPVWili3LVjaFxvBt-12" value="エラー&lt;br&gt;error.allReserved" style="text;html=1;align=center;verticalAlign=middle;resizable=0;points=[];autosize=1;strokeColor=none;fillColor=none;" parent="cUUrMDtkCKifrzGY83Dt-1" vertex="1">
          <mxGeometry x="-680" y="791" width="110" height="40" as="geometry" />
        </mxCell>
        <mxCell id="XvRURahniyJza0sPSgIp-3" value="【未ログイン】" style="text;html=1;align=center;verticalAlign=middle;resizable=0;points=[];autosize=1;strokeColor=none;fillColor=none;" parent="cUUrMDtkCKifrzGY83Dt-1" vertex="1">
          <mxGeometry x="-660" y="525" width="110" height="30" as="geometry" />
        </mxCell>
        <mxCell id="FvP3TvSU0xcxDubm_VPu-1" style="edgeStyle=orthogonalEdgeStyle;rounded=0;orthogonalLoop=1;jettySize=auto;html=1;dashed=1;entryX=0;entryY=0.5;entryDx=0;entryDy=0;entryPerimeter=0;" parent="cUUrMDtkCKifrzGY83Dt-1" target="JwjrVYOiVVG9y1fSt4AD-3" edge="1">
          <mxGeometry relative="1" as="geometry">
            <mxPoint x="-480" y="-20" as="targetPoint" />
            <Array as="points">
              <mxPoint x="-1260" y="-40" />
              <mxPoint x="-470" y="-40" />
            </Array>
            <mxPoint x="-1259.9999999999995" y="560.2799999999997" as="sourcePoint" />
          </mxGeometry>
        </mxCell>
        <mxCell id="tZuTQxU7N1dqIG6P_3Y6-0" style="edgeStyle=orthogonalEdgeStyle;rounded=0;orthogonalLoop=1;jettySize=auto;html=1;entryX=1;entryY=0.5;entryDx=0;entryDy=0;entryPerimeter=0;dashed=1;" parent="cUUrMDtkCKifrzGY83Dt-1" target="IezDBfVeZ5bRH_AuUV4C-2" edge="1">
          <mxGeometry relative="1" as="geometry">
            <mxPoint x="-1269.9999999999995" y="560.2799999999997" as="sourcePoint" />
            <Array as="points">
              <mxPoint x="-1281" y="560" />
              <mxPoint x="-1281" y="495" />
            </Array>
          </mxGeometry>
        </mxCell>
        <mxCell id="4jZgrKazdN8LFsPJg0Y4-2" style="edgeStyle=orthogonalEdgeStyle;rounded=0;orthogonalLoop=1;jettySize=auto;html=1;entryX=0;entryY=0.5;entryDx=0;entryDy=0;entryPerimeter=0;dashed=1;" parent="cUUrMDtkCKifrzGY83Dt-1" target="4jZgrKazdN8LFsPJg0Y4-0" edge="1">
          <mxGeometry relative="1" as="geometry">
            <Array as="points">
              <mxPoint x="-1260" y="1020" />
            </Array>
            <mxPoint x="-1259.9999999999995" y="634.2799999999997" as="sourcePoint" />
          </mxGeometry>
        </mxCell>
        <mxCell id="FvP3TvSU0xcxDubm_VPu-2" value="TOPページからログイン" style="text;html=1;align=center;verticalAlign=middle;resizable=0;points=[];autosize=1;strokeColor=none;fillColor=none;" parent="cUUrMDtkCKifrzGY83Dt-1" vertex="1">
          <mxGeometry x="-1250" y="-30" width="160" height="30" as="geometry" />
        </mxCell>
        <mxCell id="nv_vNNMxyAOesWTVPP6j-0" value="【ログイン済み】" style="text;html=1;align=center;verticalAlign=middle;resizable=0;points=[];autosize=1;strokeColor=none;fillColor=none;" parent="cUUrMDtkCKifrzGY83Dt-1" vertex="1">
          <mxGeometry x="-600" y="583.28" width="120" height="30" as="geometry" />
        </mxCell>
        <mxCell id="maLwn5RQmdgQbu6IXRey-0" style="edgeStyle=orthogonalEdgeStyle;rounded=0;orthogonalLoop=1;jettySize=auto;html=1;exitX=0.445;exitY=0.164;exitDx=0;exitDy=0;exitPerimeter=0;dashed=1;entryX=0;entryY=0.5;entryDx=0;entryDy=0;entryPerimeter=0;" parent="cUUrMDtkCKifrzGY83Dt-1" source="nv_vNNMxyAOesWTVPP6j-2" target="JwjrVYOiVVG9y1fSt4AD-3" edge="1">
          <mxGeometry relative="1" as="geometry">
            <mxPoint x="-645.3400000000001" y="239.83999999999992" as="targetPoint" />
            <Array as="points">
              <mxPoint x="-644" y="553" />
              <mxPoint x="-645" y="-26" />
            </Array>
          </mxGeometry>
        </mxCell>
        <mxCell id="cewtrIevnMnevMBHOG7r-14" style="edgeStyle=orthogonalEdgeStyle;rounded=0;orthogonalLoop=1;jettySize=auto;html=1;dashed=1;" parent="cUUrMDtkCKifrzGY83Dt-1" source="nv_vNNMxyAOesWTVPP6j-2" edge="1">
          <mxGeometry relative="1" as="geometry">
            <mxPoint x="-450" y="582" as="targetPoint" />
          </mxGeometry>
        </mxCell>
        <mxCell id="nv_vNNMxyAOesWTVPP6j-2" value="Spring Security" style="ellipse;shape=umlControl;whiteSpace=wrap;html=1;" parent="cUUrMDtkCKifrzGY83Dt-1" vertex="1">
          <mxGeometry x="-675" y="544" width="70" height="80" as="geometry" />
        </mxCell>
        <mxCell id="maLwn5RQmdgQbu6IXRey-14" value="&lt;b style=&quot;border-color: var(--border-color); font-size: 14px;&quot;&gt;redirect(正常)&lt;/b&gt;" style="text;html=1;align=center;verticalAlign=middle;resizable=0;points=[];autosize=1;strokeColor=none;fillColor=none;fontStyle=1" parent="cUUrMDtkCKifrzGY83Dt-1" vertex="1">
          <mxGeometry x="-555" y="860" width="110" height="30" as="geometry" />
        </mxCell>
        <mxCell id="IezDBfVeZ5bRH_AuUV4C-0" value="ログアウト" style="edgeLabel;html=1;align=center;verticalAlign=middle;resizable=0;points=[];" parent="cUUrMDtkCKifrzGY83Dt-1" vertex="1" connectable="0">
          <mxGeometry x="-1330" y="540" as="geometry">
            <mxPoint x="8" y="-7" as="offset" />
          </mxGeometry>
        </mxCell>
        <mxCell id="IezDBfVeZ5bRH_AuUV4C-1" value="" style="edgeStyle=orthogonalEdgeStyle;rounded=0;orthogonalLoop=1;jettySize=auto;html=1;entryX=1.001;entryY=0.546;entryDx=0;entryDy=0;entryPerimeter=0;" parent="cUUrMDtkCKifrzGY83Dt-1" source="IezDBfVeZ5bRH_AuUV4C-2" target="IezDBfVeZ5bRH_AuUV4C-4" edge="1">
          <mxGeometry relative="1" as="geometry">
            <mxPoint x="-1311.21" y="605.28" as="targetPoint" />
            <Array as="points" />
          </mxGeometry>
        </mxCell>
        <mxCell id="IezDBfVeZ5bRH_AuUV4C-2" value="" style="shape=providedRequiredInterface;html=1;verticalLabelPosition=bottom;sketch=0;" parent="cUUrMDtkCKifrzGY83Dt-1" vertex="1">
          <mxGeometry x="-1321.21" y="485.28" width="20" height="20" as="geometry" />
        </mxCell>
        <mxCell id="jtKie_oCL9kHlFAr-_w8-7" style="edgeStyle=orthogonalEdgeStyle;rounded=0;orthogonalLoop=1;jettySize=auto;html=1;entryX=0;entryY=0.5;entryDx=0;entryDy=0;entryPerimeter=0;exitX=0.678;exitY=0.02;exitDx=0;exitDy=0;exitPerimeter=0;dashed=1;" parent="cUUrMDtkCKifrzGY83Dt-1" source="O4HTH4wgNkci0DskiUcM-6" target="mtMLRTaYKnvluzeI34c8-1" edge="1">
          <mxGeometry relative="1" as="geometry">
            <Array as="points">
              <mxPoint x="-1250" y="557" />
              <mxPoint x="-1250" y="145" />
            </Array>
          </mxGeometry>
        </mxCell>
        <mxCell id="IezDBfVeZ5bRH_AuUV4C-3" value="/logout" style="text;align=center;fontStyle=1;verticalAlign=middle;spacingLeft=3;spacingRight=3;strokeColor=none;rotatable=0;points=[[0,0.5],[1,0.5]];portConstraint=eastwest;" parent="cUUrMDtkCKifrzGY83Dt-1" vertex="1">
          <mxGeometry x="-1351.21" y="505.28" width="80" height="26" as="geometry" />
        </mxCell>
        <mxCell id="O4HTH4wgNkci0DskiUcM-9" style="edgeStyle=orthogonalEdgeStyle;rounded=0;orthogonalLoop=1;jettySize=auto;html=1;entryX=0.3;entryY=0.2;entryDx=0;entryDy=0;entryPerimeter=0;" parent="cUUrMDtkCKifrzGY83Dt-1" source="IezDBfVeZ5bRH_AuUV4C-4" target="O4HTH4wgNkci0DskiUcM-3" edge="1">
          <mxGeometry relative="1" as="geometry" />
        </mxCell>
        <mxCell id="IezDBfVeZ5bRH_AuUV4C-4" value="Spring Security" style="ellipse;shape=umlControl;whiteSpace=wrap;html=1;" parent="cUUrMDtkCKifrzGY83Dt-1" vertex="1">
          <mxGeometry x="-1520" y="451.28" width="70" height="80" as="geometry" />
        </mxCell>
        <mxCell id="IezDBfVeZ5bRH_AuUV4C-5" value="&lt;b style=&quot;border-color: var(--border-color); font-size: 14px;&quot;&gt;redirect(正常)&lt;/b&gt;" style="edgeLabel;html=1;align=center;verticalAlign=middle;resizable=0;points=[];" parent="cUUrMDtkCKifrzGY83Dt-1" vertex="1" connectable="0">
          <mxGeometry x="-1629.999883549268" y="370.0006146468785" as="geometry">
            <mxPoint x="-28" y="1" as="offset" />
          </mxGeometry>
        </mxCell>
        <mxCell id="cUUrMDtkCKifrzGY83Dt-16" value="" style="group" parent="cUUrMDtkCKifrzGY83Dt-1" vertex="1" connectable="0">
          <mxGeometry x="-850" y="1020" width="1550" height="960" as="geometry" />
        </mxCell>
        <mxCell id="cUUrMDtkCKifrzGY83Dt-71" value="" style="endArrow=none;dashed=1;html=1;rounded=0;shadow=0;fontFamily=Helvetica;fontSize=12;fontColor=default;" parent="cUUrMDtkCKifrzGY83Dt-16" edge="1">
          <mxGeometry width="50" height="50" relative="1" as="geometry">
            <mxPoint x="1500" y="690" as="sourcePoint" />
            <mxPoint x="1550" y="270" as="targetPoint" />
            <Array as="points">
              <mxPoint x="1550" y="690" />
            </Array>
          </mxGeometry>
        </mxCell>
        <mxCell id="6WnzowaepmNM_FYqQ3TO-4" style="edgeStyle=orthogonalEdgeStyle;rounded=0;orthogonalLoop=1;jettySize=auto;html=1;entryX=1;entryY=0.5;entryDx=0;entryDy=0;entryPerimeter=0;exitX=1;exitY=0.5;exitDx=0;exitDy=0;exitPerimeter=0;dashed=1;" parent="cUUrMDtkCKifrzGY83Dt-16" source="4jZgrKazdN8LFsPJg0Y4-14" target="FV8msCGdiE5mUY8jJO_X-0" edge="1">
          <mxGeometry relative="1" as="geometry" />
        </mxCell>
        <mxCell id="4jZgrKazdN8LFsPJg0Y4-14" value="bookingCancel&lt;br&gt;Confirm.jsp&lt;br&gt;予約キャンセル確認" style="shape=umlBoundary;whiteSpace=wrap;html=1;" parent="cUUrMDtkCKifrzGY83Dt-16" vertex="1">
          <mxGeometry x="-20" y="80" width="100" height="80" as="geometry" />
        </mxCell>
        <mxCell id="FV8msCGdiE5mUY8jJO_X-0" value="" style="shape=providedRequiredInterface;html=1;verticalLabelPosition=bottom;" parent="cUUrMDtkCKifrzGY83Dt-16" vertex="1">
          <mxGeometry x="20" y="208" width="20" height="20" as="geometry" />
        </mxCell>
        <mxCell id="FV8msCGdiE5mUY8jJO_X-2" value="&lt;b&gt;bookingCancel/cancel&lt;/b&gt;" style="text;html=1;align=center;verticalAlign=middle;resizable=0;points=[];autosize=1;strokeColor=none;fillColor=none;" parent="cUUrMDtkCKifrzGY83Dt-16" vertex="1">
          <mxGeometry x="-35" y="228" width="150" height="30" as="geometry" />
        </mxCell>
        <mxCell id="6WnzowaepmNM_FYqQ3TO-5" value="OK" style="text;html=1;align=center;verticalAlign=middle;resizable=0;points=[];autosize=1;strokeColor=none;fillColor=none;" parent="cUUrMDtkCKifrzGY83Dt-16" vertex="1">
          <mxGeometry x="100" y="150" width="40" height="30" as="geometry" />
        </mxCell>
        <mxCell id="0kFFkDMJlV047JNOH4lj-7" style="edgeStyle=orthogonalEdgeStyle;rounded=0;orthogonalLoop=1;jettySize=auto;html=1;entryX=0.015;entryY=0.496;entryDx=0;entryDy=0;entryPerimeter=0;" parent="cUUrMDtkCKifrzGY83Dt-1" source="Z9Pn1ZgCGDkS-28OlfDp-0" target="RLLV32m7VIotUX4Tvn-Y-0" edge="1">
          <mxGeometry relative="1" as="geometry" />
        </mxCell>
        <mxCell id="Z9Pn1ZgCGDkS-28OlfDp-0" value="Home&lt;br style=&quot;border-color: var(--border-color);&quot;&gt;Controller&lt;br style=&quot;border-color: var(--border-color);&quot;&gt;index()" style="ellipse;shape=umlControl;whiteSpace=wrap;html=1;" parent="cUUrMDtkCKifrzGY83Dt-1" vertex="1">
          <mxGeometry x="-1100" y="558.28" width="70" height="80" as="geometry" />
        </mxCell>
        <mxCell id="RLLV32m7VIotUX4Tvn-Y-2" style="edgeStyle=orthogonalEdgeStyle;rounded=0;orthogonalLoop=1;jettySize=auto;html=1;dashed=1;entryX=0;entryY=0.5;entryDx=0;entryDy=0;entryPerimeter=0;" parent="cUUrMDtkCKifrzGY83Dt-1" source="RLLV32m7VIotUX4Tvn-Y-0" target="RLLV32m7VIotUX4Tvn-Y-3" edge="1">
          <mxGeometry relative="1" as="geometry">
            <mxPoint x="-840" y="602.28" as="targetPoint" />
            <Array as="points" />
          </mxGeometry>
        </mxCell>
        <mxCell id="RLLV32m7VIotUX4Tvn-Y-0" value="commonPage.jsp&lt;br style=&quot;border-color: var(--border-color);&quot;&gt;ホームペジ&lt;br&gt;路線検索" style="shape=umlBoundary;whiteSpace=wrap;html=1;" parent="cUUrMDtkCKifrzGY83Dt-1" vertex="1">
          <mxGeometry x="-995" y="557.28" width="100" height="82" as="geometry" />
        </mxCell>
        <mxCell id="cewtrIevnMnevMBHOG7r-7" style="edgeStyle=orthogonalEdgeStyle;rounded=0;orthogonalLoop=1;jettySize=auto;html=1;entryX=0.483;entryY=0.17;entryDx=0;entryDy=0;entryPerimeter=0;" parent="cUUrMDtkCKifrzGY83Dt-1" source="RLLV32m7VIotUX4Tvn-Y-3" target="cewtrIevnMnevMBHOG7r-2" edge="1">
          <mxGeometry relative="1" as="geometry">
            <Array as="points">
              <mxPoint x="-785" y="684" />
            </Array>
          </mxGeometry>
        </mxCell>
        <mxCell id="RLLV32m7VIotUX4Tvn-Y-3" value="" style="shape=providedRequiredInterface;html=1;verticalLabelPosition=bottom;" parent="cUUrMDtkCKifrzGY83Dt-1" vertex="1">
          <mxGeometry x="-795" y="588.28" width="20" height="20" as="geometry" />
        </mxCell>
        <mxCell id="RLLV32m7VIotUX4Tvn-Y-4" value="route/searchResult" style="text;align=center;fontStyle=1;verticalAlign=middle;spacingLeft=3;spacingRight=3;strokeColor=none;rotatable=0;points=[[0,0.5],[1,0.5]];portConstraint=eastwest;" parent="cUUrMDtkCKifrzGY83Dt-1" vertex="1">
          <mxGeometry x="-825" y="604.28" width="80" height="26" as="geometry" />
        </mxCell>
        <mxCell id="X0QgWl74ogSmq7FXYoTS-0" value="検索" style="text;html=1;align=center;verticalAlign=middle;resizable=0;points=[];autosize=1;strokeColor=none;fillColor=none;" parent="cUUrMDtkCKifrzGY83Dt-1" vertex="1">
          <mxGeometry x="-895" y="570" width="50" height="30" as="geometry" />
        </mxCell>
        <mxCell id="w8NjhGK84v3LaMva_mcL-1" value="戻る" style="text;html=1;align=center;verticalAlign=middle;resizable=0;points=[];autosize=1;strokeColor=none;fillColor=none;" parent="cUUrMDtkCKifrzGY83Dt-1" vertex="1">
          <mxGeometry x="-115" y="375" width="50" height="30" as="geometry" />
        </mxCell>
        <mxCell id="0kFFkDMJlV047JNOH4lj-3" value="エラー" style="text;html=1;align=center;verticalAlign=middle;resizable=0;points=[];autosize=1;strokeColor=none;fillColor=none;" parent="cUUrMDtkCKifrzGY83Dt-1" vertex="1">
          <mxGeometry x="-255" y="345" width="60" height="30" as="geometry" />
        </mxCell>
        <mxCell id="0kFFkDMJlV047JNOH4lj-12" value="路線検索" style="text;html=1;align=center;verticalAlign=middle;resizable=0;points=[];autosize=1;strokeColor=none;fillColor=none;" parent="cUUrMDtkCKifrzGY83Dt-1" vertex="1">
          <mxGeometry x="-1175" y="561" width="70" height="30" as="geometry" />
        </mxCell>
        <mxCell id="4jZgrKazdN8LFsPJg0Y4-4" style="edgeStyle=orthogonalEdgeStyle;rounded=0;orthogonalLoop=1;jettySize=auto;html=1;exitX=1;exitY=0.5;exitDx=0;exitDy=0;exitPerimeter=0;entryX=0.026;entryY=0.514;entryDx=0;entryDy=0;entryPerimeter=0;" parent="cUUrMDtkCKifrzGY83Dt-1" source="4jZgrKazdN8LFsPJg0Y4-0" target="4jZgrKazdN8LFsPJg0Y4-3" edge="1">
          <mxGeometry relative="1" as="geometry" />
        </mxCell>
        <mxCell id="4jZgrKazdN8LFsPJg0Y4-0" value="" style="shape=providedRequiredInterface;html=1;verticalLabelPosition=bottom;" parent="cUUrMDtkCKifrzGY83Dt-1" vertex="1">
          <mxGeometry x="-1120" y="1010" width="20" height="20" as="geometry" />
        </mxCell>
        <mxCell id="4jZgrKazdN8LFsPJg0Y4-1" value="booking/list" style="text;align=center;fontStyle=1;verticalAlign=middle;spacingLeft=3;spacingRight=3;strokeColor=none;rotatable=0;points=[[0,0.5],[1,0.5]];portConstraint=eastwest;" parent="cUUrMDtkCKifrzGY83Dt-1" vertex="1">
          <mxGeometry x="-1150" y="1030" width="80" height="26" as="geometry" />
        </mxCell>
        <mxCell id="4jZgrKazdN8LFsPJg0Y4-6" style="edgeStyle=orthogonalEdgeStyle;rounded=0;orthogonalLoop=1;jettySize=auto;html=1;entryX=0.016;entryY=0.497;entryDx=0;entryDy=0;entryPerimeter=0;" parent="cUUrMDtkCKifrzGY83Dt-1" source="4jZgrKazdN8LFsPJg0Y4-3" target="4jZgrKazdN8LFsPJg0Y4-5" edge="1">
          <mxGeometry relative="1" as="geometry" />
        </mxCell>
        <mxCell id="4jZgrKazdN8LFsPJg0Y4-3" value="BookingList&lt;br&gt;Controller&lt;br&gt;list()" style="ellipse;shape=umlControl;whiteSpace=wrap;html=1;" parent="cUUrMDtkCKifrzGY83Dt-1" vertex="1">
          <mxGeometry x="-1040" y="980" width="70" height="80" as="geometry" />
        </mxCell>
        <mxCell id="4jZgrKazdN8LFsPJg0Y4-11" style="edgeStyle=orthogonalEdgeStyle;rounded=0;orthogonalLoop=1;jettySize=auto;html=1;entryX=0;entryY=0.5;entryDx=0;entryDy=0;entryPerimeter=0;dashed=1;" parent="cUUrMDtkCKifrzGY83Dt-1" source="4jZgrKazdN8LFsPJg0Y4-5" target="4jZgrKazdN8LFsPJg0Y4-9" edge="1">
          <mxGeometry relative="1" as="geometry">
            <Array as="points">
              <mxPoint x="-850" y="1080" />
              <mxPoint x="-1130" y="1080" />
              <mxPoint x="-1130" y="1140" />
            </Array>
          </mxGeometry>
        </mxCell>
        <mxCell id="4jZgrKazdN8LFsPJg0Y4-15" style="edgeStyle=orthogonalEdgeStyle;rounded=0;orthogonalLoop=1;jettySize=auto;html=1;entryX=0.645;entryY=0.99;entryDx=0;entryDy=0;entryPerimeter=0;dashed=1;" parent="cUUrMDtkCKifrzGY83Dt-1" source="4jZgrKazdN8LFsPJg0Y4-5" edge="1">
          <mxGeometry relative="1" as="geometry">
            <Array as="points">
              <mxPoint x="-850" y="950" />
              <mxPoint x="-1240" y="950" />
              <mxPoint x="-1240" y="634" />
            </Array>
            <mxPoint x="-1256.9500000000003" y="633.5399999999995" as="targetPoint" />
          </mxGeometry>
        </mxCell>
        <mxCell id="4jZgrKazdN8LFsPJg0Y4-5" value="BookingList.jsp&lt;br&gt;予約履歴" style="shape=umlBoundary;whiteSpace=wrap;html=1;" parent="cUUrMDtkCKifrzGY83Dt-1" vertex="1">
          <mxGeometry x="-900" y="980" width="100" height="80" as="geometry" />
        </mxCell>
        <mxCell id="4jZgrKazdN8LFsPJg0Y4-7" value="【ログイン済み】" style="text;html=1;align=center;verticalAlign=middle;resizable=0;points=[];autosize=1;strokeColor=none;fillColor=none;rotation=90;" parent="cUUrMDtkCKifrzGY83Dt-1" vertex="1">
          <mxGeometry x="-1330" y="732" width="120" height="30" as="geometry" />
        </mxCell>
        <mxCell id="4jZgrKazdN8LFsPJg0Y4-8" value="予約履歴" style="text;html=1;align=center;verticalAlign=middle;resizable=0;points=[];autosize=1;strokeColor=none;fillColor=none;" parent="cUUrMDtkCKifrzGY83Dt-1" vertex="1">
          <mxGeometry x="-1261.21" y="990" width="70" height="30" as="geometry" />
        </mxCell>
        <mxCell id="4jZgrKazdN8LFsPJg0Y4-17" style="edgeStyle=orthogonalEdgeStyle;rounded=0;orthogonalLoop=1;jettySize=auto;html=1;exitX=1;exitY=0.5;exitDx=0;exitDy=0;exitPerimeter=0;entryX=0.001;entryY=0.534;entryDx=0;entryDy=0;entryPerimeter=0;" parent="cUUrMDtkCKifrzGY83Dt-1" source="4jZgrKazdN8LFsPJg0Y4-9" target="4jZgrKazdN8LFsPJg0Y4-13" edge="1">
          <mxGeometry relative="1" as="geometry" />
        </mxCell>
        <mxCell id="4jZgrKazdN8LFsPJg0Y4-9" value="" style="shape=providedRequiredInterface;html=1;verticalLabelPosition=bottom;" parent="cUUrMDtkCKifrzGY83Dt-1" vertex="1">
          <mxGeometry x="-1110" y="1130" width="20" height="20" as="geometry" />
        </mxCell>
        <mxCell id="4jZgrKazdN8LFsPJg0Y4-10" value="bookingCancel/confirm" style="text;align=center;fontStyle=1;verticalAlign=middle;spacingLeft=3;spacingRight=3;strokeColor=none;rotatable=0;points=[[0,0.5],[1,0.5]];portConstraint=eastwest;" parent="cUUrMDtkCKifrzGY83Dt-1" vertex="1">
          <mxGeometry x="-1140" y="1140" width="80" height="26" as="geometry" />
        </mxCell>
        <mxCell id="4jZgrKazdN8LFsPJg0Y4-12" value="キャンセル" style="text;html=1;align=center;verticalAlign=middle;resizable=0;points=[];autosize=1;strokeColor=none;fillColor=none;" parent="cUUrMDtkCKifrzGY83Dt-1" vertex="1">
          <mxGeometry x="-990" y="1056" width="80" height="30" as="geometry" />
        </mxCell>
        <mxCell id="uF_6knKGvZLjO0wLhkqF-0" style="edgeStyle=orthogonalEdgeStyle;rounded=0;orthogonalLoop=1;jettySize=auto;html=1;entryX=0.012;entryY=0.484;entryDx=0;entryDy=0;entryPerimeter=0;" parent="cUUrMDtkCKifrzGY83Dt-1" source="4jZgrKazdN8LFsPJg0Y4-13" target="4jZgrKazdN8LFsPJg0Y4-14" edge="1">
          <mxGeometry relative="1" as="geometry" />
        </mxCell>
        <mxCell id="fYDfyVdL-MuC_XGRxk4_-2" style="edgeStyle=orthogonalEdgeStyle;rounded=0;orthogonalLoop=1;jettySize=auto;html=1;entryX=0.41;entryY=1.007;entryDx=0;entryDy=0;entryPerimeter=0;" parent="cUUrMDtkCKifrzGY83Dt-1" source="4jZgrKazdN8LFsPJg0Y4-13" target="4jZgrKazdN8LFsPJg0Y4-3" edge="1">
          <mxGeometry relative="1" as="geometry">
            <Array as="points">
              <mxPoint x="-1180" y="1170" />
              <mxPoint x="-1180" y="1061" />
            </Array>
          </mxGeometry>
        </mxCell>
        <mxCell id="4jZgrKazdN8LFsPJg0Y4-13" value="BookingCancel&lt;br&gt;Controller&lt;br&gt;confirm()" style="ellipse;shape=umlControl;whiteSpace=wrap;html=1;" parent="cUUrMDtkCKifrzGY83Dt-1" vertex="1">
          <mxGeometry x="-1020" y="1100" width="70" height="80" as="geometry" />
        </mxCell>
        <mxCell id="4jZgrKazdN8LFsPJg0Y4-16" value="戻る" style="text;html=1;align=center;verticalAlign=middle;resizable=0;points=[];autosize=1;strokeColor=none;fillColor=none;" parent="cUUrMDtkCKifrzGY83Dt-1" vertex="1">
          <mxGeometry x="-1040" y="948" width="50" height="30" as="geometry" />
        </mxCell>
        <mxCell id="6WnzowaepmNM_FYqQ3TO-0" style="edgeStyle=orthogonalEdgeStyle;rounded=0;orthogonalLoop=1;jettySize=auto;html=1;dashed=1;entryX=0.289;entryY=0.819;entryDx=0;entryDy=0;entryPerimeter=0;" parent="cUUrMDtkCKifrzGY83Dt-1" source="W0cpwzpVZ0xAGOQb0Oy8-2" target="O4HTH4wgNkci0DskiUcM-6" edge="1">
          <mxGeometry relative="1" as="geometry">
            <Array as="points">
              <mxPoint x="-1300" y="1260" />
              <mxPoint x="-1300" y="622" />
            </Array>
            <mxPoint x="-1300" y="640" as="targetPoint" />
          </mxGeometry>
        </mxCell>
        <mxCell id="YT9_pVBrHntIXNorh0h2-0" style="edgeStyle=orthogonalEdgeStyle;rounded=0;orthogonalLoop=1;jettySize=auto;html=1;entryX=0.376;entryY=0.978;entryDx=0;entryDy=0;entryPerimeter=0;" parent="cUUrMDtkCKifrzGY83Dt-1" source="W0cpwzpVZ0xAGOQb0Oy8-2" target="4jZgrKazdN8LFsPJg0Y4-3" edge="1">
          <mxGeometry relative="1" as="geometry">
            <Array as="points">
              <mxPoint x="-1180" y="1240" />
              <mxPoint x="-1180" y="1058" />
            </Array>
          </mxGeometry>
        </mxCell>
        <mxCell id="W0cpwzpVZ0xAGOQb0Oy8-2" value="BookingCancel&lt;br&gt;Controller&lt;br&gt;cancel()" style="ellipse;shape=umlControl;whiteSpace=wrap;html=1;" parent="cUUrMDtkCKifrzGY83Dt-1" vertex="1">
          <mxGeometry x="-1010" y="1200" width="70" height="80" as="geometry" />
        </mxCell>
        <mxCell id="G4KOovJy_VKpZWI2etYR-1" style="edgeStyle=orthogonalEdgeStyle;rounded=0;orthogonalLoop=1;jettySize=auto;html=1;entryX=1.001;entryY=0.464;entryDx=0;entryDy=0;entryPerimeter=0;" parent="cUUrMDtkCKifrzGY83Dt-1" source="FV8msCGdiE5mUY8jJO_X-0" target="W0cpwzpVZ0xAGOQb0Oy8-2" edge="1">
          <mxGeometry relative="1" as="geometry" />
        </mxCell>
        <mxCell id="JwjrVYOiVVG9y1fSt4AD-6" value="/login" style="text;align=center;fontStyle=1;verticalAlign=middle;spacingLeft=3;spacingRight=3;strokeColor=none;rotatable=0;points=[[0,0.5],[1,0.5]];portConstraint=eastwest;" parent="cUUrMDtkCKifrzGY83Dt-1" vertex="1">
          <mxGeometry x="-500" y="-15" width="80" height="20" as="geometry" />
        </mxCell>
        <mxCell id="YSKy24dloyxX3T9XC0ft-5" value="エラー" style="text;html=1;align=center;verticalAlign=middle;resizable=0;points=[];autosize=1;strokeColor=none;fillColor=none;" parent="cUUrMDtkCKifrzGY83Dt-1" vertex="1">
          <mxGeometry x="-255" y="-80" width="60" height="30" as="geometry" />
        </mxCell>
        <mxCell id="JwjrVYOiVVG9y1fSt4AD-0" value="" style="edgeStyle=orthogonalEdgeStyle;rounded=0;orthogonalLoop=1;jettySize=auto;html=1;shadow=0;dashed=1;fontFamily=Helvetica;fontSize=12;fontColor=default;" parent="cUUrMDtkCKifrzGY83Dt-1" source="JwjrVYOiVVG9y1fSt4AD-1" edge="1">
          <mxGeometry relative="1" as="geometry">
            <mxPoint x="-10" y="-26" as="targetPoint" />
          </mxGeometry>
        </mxCell>
        <mxCell id="jtKie_oCL9kHlFAr-_w8-5" style="edgeStyle=orthogonalEdgeStyle;rounded=0;orthogonalLoop=1;jettySize=auto;html=1;entryX=0;entryY=0.5;entryDx=0;entryDy=0;entryPerimeter=0;dashed=1;" parent="cUUrMDtkCKifrzGY83Dt-1" source="JwjrVYOiVVG9y1fSt4AD-1" target="mtMLRTaYKnvluzeI34c8-1" edge="1">
          <mxGeometry relative="1" as="geometry">
            <Array as="points">
              <mxPoint x="-130" y="40" />
              <mxPoint x="-450" y="40" />
              <mxPoint x="-450" y="145" />
            </Array>
          </mxGeometry>
        </mxCell>
        <mxCell id="JwjrVYOiVVG9y1fSt4AD-1" value="login.jsp&lt;br&gt;ログイン" style="shape=umlBoundary;whiteSpace=wrap;html=1;" parent="cUUrMDtkCKifrzGY83Dt-1" vertex="1">
          <mxGeometry x="-180" y="-66" width="100" height="80" as="geometry" />
        </mxCell>
        <mxCell id="JwjrVYOiVVG9y1fSt4AD-2" value="" style="edgeStyle=orthogonalEdgeStyle;rounded=0;orthogonalLoop=1;jettySize=auto;html=1;" parent="cUUrMDtkCKifrzGY83Dt-1" source="JwjrVYOiVVG9y1fSt4AD-3" edge="1">
          <mxGeometry relative="1" as="geometry">
            <mxPoint x="-360" y="-26" as="targetPoint" />
          </mxGeometry>
        </mxCell>
        <mxCell id="JwjrVYOiVVG9y1fSt4AD-3" value="" style="shape=providedRequiredInterface;html=1;verticalLabelPosition=bottom;" parent="cUUrMDtkCKifrzGY83Dt-1" vertex="1">
          <mxGeometry x="-470" y="-36" width="20" height="20" as="geometry" />
        </mxCell>
        <mxCell id="YSKy24dloyxX3T9XC0ft-4" style="edgeStyle=orthogonalEdgeStyle;rounded=0;orthogonalLoop=1;jettySize=auto;html=1;entryX=0.533;entryY=0.967;entryDx=0;entryDy=0;entryPerimeter=0;exitX=0.345;exitY=0.168;exitDx=0;exitDy=0;exitPerimeter=0;" parent="cUUrMDtkCKifrzGY83Dt-1" source="JwjrVYOiVVG9y1fSt4AD-11" target="JwjrVYOiVVG9y1fSt4AD-3" edge="1">
          <mxGeometry relative="1" as="geometry">
            <Array as="points">
              <mxPoint x="14" y="-80" />
              <mxPoint x="-459" y="-80" />
            </Array>
          </mxGeometry>
        </mxCell>
        <mxCell id="JwjrVYOiVVG9y1fSt4AD-4" value="" style="edgeStyle=orthogonalEdgeStyle;rounded=0;orthogonalLoop=1;jettySize=auto;html=1;" parent="cUUrMDtkCKifrzGY83Dt-1" source="JwjrVYOiVVG9y1fSt4AD-5" edge="1">
          <mxGeometry relative="1" as="geometry">
            <mxPoint x="-180" y="-26" as="targetPoint" />
          </mxGeometry>
        </mxCell>
        <mxCell id="JwjrVYOiVVG9y1fSt4AD-5" value="Login&lt;br&gt;Controller" style="ellipse;shape=umlControl;whiteSpace=wrap;html=1;" parent="cUUrMDtkCKifrzGY83Dt-1" vertex="1">
          <mxGeometry x="-360" y="-66" width="70" height="80" as="geometry" />
        </mxCell>
        <mxCell id="wNqNp9GAvKB_acG6kcsX-2" style="edgeStyle=orthogonalEdgeStyle;rounded=0;orthogonalLoop=1;jettySize=auto;html=1;entryX=1;entryY=0.5;entryDx=0;entryDy=0;entryPerimeter=0;exitX=0.524;exitY=0.08;exitDx=0;exitDy=0;exitPerimeter=0;" parent="cUUrMDtkCKifrzGY83Dt-1" source="JwjrVYOiVVG9y1fSt4AD-11" target="O4HTH4wgNkci0DskiUcM-3" edge="1">
          <mxGeometry relative="1" as="geometry">
            <Array as="points">
              <mxPoint x="25" y="-64" />
              <mxPoint x="25" y="-110" />
              <mxPoint x="-1710" y="-110" />
              <mxPoint x="-1710" y="601" />
            </Array>
            <mxPoint x="-1395" y="597.28" as="targetPoint" />
          </mxGeometry>
        </mxCell>
        <mxCell id="JwjrVYOiVVG9y1fSt4AD-11" value="Spring Security" style="ellipse;shape=umlControl;whiteSpace=wrap;html=1;" parent="cUUrMDtkCKifrzGY83Dt-1" vertex="1">
          <mxGeometry x="-10" y="-70" width="70" height="80" as="geometry" />
        </mxCell>
        <mxCell id="0kFFkDMJlV047JNOH4lj-1" value="認証OK" style="text;html=1;align=center;verticalAlign=middle;resizable=0;points=[];autosize=1;strokeColor=none;fillColor=none;" parent="cUUrMDtkCKifrzGY83Dt-1" vertex="1">
          <mxGeometry x="-100" y="-145" width="60" height="30" as="geometry" />
        </mxCell>
        <mxCell id="wNqNp9GAvKB_acG6kcsX-4" value="&lt;b style=&quot;border-color: var(--border-color); font-size: 14px;&quot;&gt;redirect(正常)&lt;/b&gt;" style="text;html=1;align=center;verticalAlign=middle;resizable=0;points=[];autosize=1;strokeColor=none;fillColor=none;fontStyle=1" parent="cUUrMDtkCKifrzGY83Dt-1" vertex="1">
          <mxGeometry x="-1411.21" y="1125" width="110" height="30" as="geometry" />
        </mxCell>
        <mxCell id="6WnzowaepmNM_FYqQ3TO-2" style="edgeStyle=orthogonalEdgeStyle;rounded=0;orthogonalLoop=1;jettySize=auto;html=1;entryX=0;entryY=0.5;entryDx=0;entryDy=0;entryPerimeter=0;dashed=1;" parent="cUUrMDtkCKifrzGY83Dt-1" source="4jZgrKazdN8LFsPJg0Y4-14" target="4jZgrKazdN8LFsPJg0Y4-0" edge="1">
          <mxGeometry relative="1" as="geometry">
            <Array as="points">
              <mxPoint x="-820" y="1200" />
              <mxPoint x="-1200" y="1200" />
              <mxPoint x="-1200" y="1020" />
            </Array>
          </mxGeometry>
        </mxCell>
        <mxCell id="W0cpwzpVZ0xAGOQb0Oy8-1" value="戻る" style="text;html=1;align=center;verticalAlign=middle;resizable=0;points=[];autosize=1;strokeColor=none;fillColor=none;" parent="cUUrMDtkCKifrzGY83Dt-1" vertex="1">
          <mxGeometry x="-1150" y="1190" width="50" height="30" as="geometry" />
        </mxCell>
        <mxCell id="fYDfyVdL-MuC_XGRxk4_-3" value="エラー" style="text;html=1;align=center;verticalAlign=middle;resizable=0;points=[];autosize=1;strokeColor=none;fillColor=none;" parent="cUUrMDtkCKifrzGY83Dt-1" vertex="1">
          <mxGeometry x="-1200" y="1086" width="60" height="30" as="geometry" />
        </mxCell>
        <mxCell id="YT9_pVBrHntIXNorh0h2-1" value="エラー" style="text;html=1;align=center;verticalAlign=middle;resizable=0;points=[];autosize=1;strokeColor=none;fillColor=none;" parent="cUUrMDtkCKifrzGY83Dt-1" vertex="1">
          <mxGeometry x="-1100" y="1220" width="60" height="30" as="geometry" />
        </mxCell>
        <mxCell id="YT9_pVBrHntIXNorh0h2-3" value="エラー" style="text;html=1;align=center;verticalAlign=middle;resizable=0;points=[];autosize=1;strokeColor=none;fillColor=none;" parent="cUUrMDtkCKifrzGY83Dt-1" vertex="1">
          <mxGeometry x="50" y="834" width="60" height="30" as="geometry" />
        </mxCell>
        <mxCell id="JJjpUep18ggFhWBj1Onx-2" value="戻る" style="text;html=1;align=center;verticalAlign=middle;resizable=0;points=[];autosize=1;strokeColor=none;fillColor=none;" parent="cUUrMDtkCKifrzGY83Dt-1" vertex="1">
          <mxGeometry x="-410" y="820" width="50" height="30" as="geometry" />
        </mxCell>
        <mxCell id="cewtrIevnMnevMBHOG7r-10" style="edgeStyle=orthogonalEdgeStyle;rounded=0;orthogonalLoop=1;jettySize=auto;html=1;entryX=0.543;entryY=0.998;entryDx=0;entryDy=0;entryPerimeter=0;dashed=1;exitX=1.023;exitY=0.541;exitDx=0;exitDy=0;exitPerimeter=0;" parent="cUUrMDtkCKifrzGY83Dt-1" source="cewtrIevnMnevMBHOG7r-0" target="nv_vNNMxyAOesWTVPP6j-2" edge="1">
          <mxGeometry relative="1" as="geometry">
            <mxPoint x="-619.0900000000001" y="581.7199999999998" as="targetPoint" />
            <Array as="points">
              <mxPoint x="-637" y="713" />
            </Array>
          </mxGeometry>
        </mxCell>
        <mxCell id="cewtrIevnMnevMBHOG7r-0" value="routeSearch&lt;br&gt;Reslut.jsp&lt;br&gt;路線検索結果" style="shape=umlBoundary;whiteSpace=wrap;html=1;" parent="cUUrMDtkCKifrzGY83Dt-1" vertex="1">
          <mxGeometry x="-765" y="669" width="100" height="82" as="geometry" />
        </mxCell>
        <mxCell id="cewtrIevnMnevMBHOG7r-8" style="edgeStyle=orthogonalEdgeStyle;rounded=0;orthogonalLoop=1;jettySize=auto;html=1;entryX=0.006;entryY=0.496;entryDx=0;entryDy=0;entryPerimeter=0;" parent="cUUrMDtkCKifrzGY83Dt-1" source="cewtrIevnMnevMBHOG7r-2" target="cewtrIevnMnevMBHOG7r-0" edge="1">
          <mxGeometry relative="1" as="geometry" />
        </mxCell>
        <mxCell id="cewtrIevnMnevMBHOG7r-2" value="Route&lt;br&gt;Controller&lt;br&gt;searchResult()" style="ellipse;shape=umlControl;whiteSpace=wrap;html=1;" parent="cUUrMDtkCKifrzGY83Dt-1" vertex="1">
          <mxGeometry x="-955" y="670" width="70" height="80" as="geometry" />
        </mxCell>
        <mxCell id="cewtrIevnMnevMBHOG7r-29" style="edgeStyle=orthogonalEdgeStyle;rounded=0;orthogonalLoop=1;jettySize=auto;html=1;dashed=1;entryX=0;entryY=0.5;entryDx=0;entryDy=0;entryPerimeter=0;" parent="cUUrMDtkCKifrzGY83Dt-1" source="cewtrIevnMnevMBHOG7r-24" target="JwjrVYOiVVG9y1fSt4AD-3" edge="1">
          <mxGeometry relative="1" as="geometry">
            <mxPoint x="-460" y="-40" as="targetPoint" />
            <Array as="points">
              <mxPoint x="440" y="-180" />
              <mxPoint x="-470" y="-180" />
            </Array>
          </mxGeometry>
        </mxCell>
        <mxCell id="cewtrIevnMnevMBHOG7r-24" value="memberRegister&lt;br&gt;Finish.jsp&lt;br&gt;会員登録完了" style="shape=umlBoundary;whiteSpace=wrap;html=1;" parent="cUUrMDtkCKifrzGY83Dt-1" vertex="1">
          <mxGeometry x="390" y="260" width="100" height="80" as="geometry" />
        </mxCell>
        <mxCell id="O4HTH4wgNkci0DskiUcM-2" style="edgeStyle=orthogonalEdgeStyle;rounded=0;orthogonalLoop=1;jettySize=auto;html=1;entryX=0.035;entryY=0.509;entryDx=0;entryDy=0;entryPerimeter=0;" parent="cUUrMDtkCKifrzGY83Dt-1" source="O4HTH4wgNkci0DskiUcM-0" target="O4HTH4wgNkci0DskiUcM-1" edge="1">
          <mxGeometry relative="1" as="geometry" />
        </mxCell>
        <mxCell id="O4HTH4wgNkci0DskiUcM-0" value="Home&lt;br&gt;Controller&lt;br&gt;index()" style="ellipse;shape=umlControl;whiteSpace=wrap;html=1;" parent="cUUrMDtkCKifrzGY83Dt-1" vertex="1">
          <mxGeometry x="-1600" y="559.28" width="70" height="80" as="geometry" />
        </mxCell>
        <mxCell id="O4HTH4wgNkci0DskiUcM-8" style="edgeStyle=orthogonalEdgeStyle;rounded=0;orthogonalLoop=1;jettySize=auto;html=1;entryX=0.036;entryY=0.504;entryDx=0;entryDy=0;entryPerimeter=0;" parent="cUUrMDtkCKifrzGY83Dt-1" source="O4HTH4wgNkci0DskiUcM-1" target="O4HTH4wgNkci0DskiUcM-6" edge="1">
          <mxGeometry relative="1" as="geometry" />
        </mxCell>
        <mxCell id="O4HTH4wgNkci0DskiUcM-1" value="commonPage.jsp&lt;br&gt;ホームペジ" style="shape=umlBoundary;whiteSpace=wrap;html=1;" parent="cUUrMDtkCKifrzGY83Dt-1" vertex="1">
          <mxGeometry x="-1470" y="557.28" width="100" height="82" as="geometry" />
        </mxCell>
        <mxCell id="O4HTH4wgNkci0DskiUcM-5" style="edgeStyle=orthogonalEdgeStyle;rounded=0;orthogonalLoop=1;jettySize=auto;html=1;entryX=0;entryY=0.52;entryDx=0;entryDy=0;entryPerimeter=0;" parent="cUUrMDtkCKifrzGY83Dt-1" source="O4HTH4wgNkci0DskiUcM-3" target="O4HTH4wgNkci0DskiUcM-0" edge="1">
          <mxGeometry relative="1" as="geometry" />
        </mxCell>
        <mxCell id="O4HTH4wgNkci0DskiUcM-3" value="" style="shape=providedRequiredInterface;html=1;verticalLabelPosition=bottom;" parent="cUUrMDtkCKifrzGY83Dt-1" vertex="1">
          <mxGeometry x="-1690" y="591" width="20" height="20" as="geometry" />
        </mxCell>
        <mxCell id="O4HTH4wgNkci0DskiUcM-4" value="/" style="text;html=1;align=center;verticalAlign=middle;resizable=0;points=[];autosize=1;strokeColor=none;fillColor=none;" parent="cUUrMDtkCKifrzGY83Dt-1" vertex="1">
          <mxGeometry x="-1695" y="609.28" width="30" height="30" as="geometry" />
        </mxCell>
        <mxCell id="jtKie_oCL9kHlFAr-_w8-3" style="edgeStyle=orthogonalEdgeStyle;rounded=0;orthogonalLoop=1;jettySize=auto;html=1;entryX=0;entryY=0.5;entryDx=0;entryDy=0;entryPerimeter=0;dashed=1;" parent="cUUrMDtkCKifrzGY83Dt-1" source="O4HTH4wgNkci0DskiUcM-6" target="jtKie_oCL9kHlFAr-_w8-1" edge="1">
          <mxGeometry relative="1" as="geometry" />
        </mxCell>
        <mxCell id="O4HTH4wgNkci0DskiUcM-6" value="header&lt;br&gt;navbar" style="shape=umlBoundary;whiteSpace=wrap;html=1;" parent="cUUrMDtkCKifrzGY83Dt-1" vertex="1">
          <mxGeometry x="-1330" y="555.28" width="100" height="82" as="geometry" />
        </mxCell>
        <mxCell id="jtKie_oCL9kHlFAr-_w8-0" value="&lt;h1&gt;各画面のヘッダ&lt;/h1&gt;&lt;p&gt;常に表示する。&lt;br&gt;&lt;/p&gt;★デフォルト：路線検索の画面" style="text;html=1;strokeColor=none;fillColor=none;spacing=5;spacingTop=-20;whiteSpace=wrap;overflow=hidden;rounded=0;" parent="cUUrMDtkCKifrzGY83Dt-1" vertex="1">
          <mxGeometry x="-1520" y="669" width="200" height="110" as="geometry" />
        </mxCell>
        <mxCell id="jtKie_oCL9kHlFAr-_w8-4" style="edgeStyle=orthogonalEdgeStyle;rounded=0;orthogonalLoop=1;jettySize=auto;html=1;entryX=0.016;entryY=0.474;entryDx=0;entryDy=0;entryPerimeter=0;" parent="cUUrMDtkCKifrzGY83Dt-1" source="jtKie_oCL9kHlFAr-_w8-1" target="Z9Pn1ZgCGDkS-28OlfDp-0" edge="1">
          <mxGeometry relative="1" as="geometry" />
        </mxCell>
        <mxCell id="jtKie_oCL9kHlFAr-_w8-1" value="" style="shape=providedRequiredInterface;html=1;verticalLabelPosition=bottom;" parent="cUUrMDtkCKifrzGY83Dt-1" vertex="1">
          <mxGeometry x="-1195" y="586.28" width="20" height="20" as="geometry" />
        </mxCell>
        <mxCell id="jtKie_oCL9kHlFAr-_w8-2" value="/" style="text;html=1;align=center;verticalAlign=middle;resizable=0;points=[];autosize=1;strokeColor=none;fillColor=none;" parent="cUUrMDtkCKifrzGY83Dt-1" vertex="1">
          <mxGeometry x="-1200" y="602.28" width="30" height="30" as="geometry" />
        </mxCell>
        <mxCell id="jtKie_oCL9kHlFAr-_w8-6" value="会員登録" style="text;html=1;align=center;verticalAlign=middle;resizable=0;points=[];autosize=1;strokeColor=none;fillColor=none;" parent="cUUrMDtkCKifrzGY83Dt-1" vertex="1">
          <mxGeometry x="-235" y="38" width="70" height="30" as="geometry" />
        </mxCell>
        <mxCell id="jtKie_oCL9kHlFAr-_w8-8" value="TOPページから会員登録" style="text;html=1;align=center;verticalAlign=middle;resizable=0;points=[];autosize=1;strokeColor=none;fillColor=none;" parent="cUUrMDtkCKifrzGY83Dt-1" vertex="1">
          <mxGeometry x="-1230" y="155" width="160" height="30" as="geometry" />
        </mxCell>
        <mxCell id="jtKie_oCL9kHlFAr-_w8-9" value="ログイン" style="text;html=1;align=center;verticalAlign=middle;resizable=0;points=[];autosize=1;strokeColor=none;fillColor=none;" parent="cUUrMDtkCKifrzGY83Dt-1" vertex="1">
          <mxGeometry x="-80" y="-20" width="70" height="30" as="geometry" />
        </mxCell>
      </root>
    </mxGraphModel>
  </diagram>
</mxfile>
